<?xml version="1.0" ?><svg xmlns="http://www.w3.org/2000/svg" xmlns:xlink="http://www.w3.org/1999/xlink" version="1.1" viewBox="0 0 512 512" style="enable-background:new 0 0 512 512;" xml:space="preserve"><g id="_x32_6_Server"><g><linearGradient id="SVGID_1_" gradientUnits="userSpaceOnUse" x1="285.5213" y1="-217.7334" x2="226.0146" y2="889.0911"><stop offset="0" style="stop-color:#EAE9FE"/><stop offset="0.4236" style="stop-color:#EEEEFE"/><stop offset="0.8967" style="stop-color:#FBFBFF"/><stop offset="1" style="stop-color:#FFFFFF"/></linearGradient><path style="fill:url(#SVGID_1_);" d="M472.914,261.401c-9.683-7.535-21.378-14.027-25.882-25.439    c-6.125-15.52,3.665-32.176,9.439-47.831c17.628-47.798-4.997-104.402-45.589-135.186    C333.443-5.783,182.282,14.802,161.159,95.973c-8.936,34.337,7.074,73.513-9.306,104.987    c-20.667,39.713-75.492,42.391-110.802,60.05c-43.746,21.878-52.499,69.515-21.125,105.783    c11.521,13.318,26.262,22.493,36.829,37.044c15.288,21.055,23.863,44.338,44.319,61.705c28.805,24.456,76.964,30.52,102.464,2.636    c14.36-15.702,19.032-38.836,34.706-53.226c20.633-18.942,53.243-16.394,79.499-6.639c26.255,9.755,50.606,25.505,78.261,29.944    c43.239,6.94,89.601-18.431,107.066-58.591C520.534,339.506,507.476,288.295,472.914,261.401z"/><path style="fill:#EDEDED;" d="M275.125,470.797c0,15.128-12.256,27.384-27.384,27.384H73.46    c-15.128,0-27.384-12.256-27.384-27.384H275.125z"/><path style="fill:#F9BB40;" d="M263.048,342.11v128.693H58.153V342.11c0-4.941,4.006-8.947,8.947-8.947h187    C259.042,333.163,263.048,337.169,263.048,342.11z"/><path style="fill:#EDEDED;" d="M84.884,445.073v-86.179c0-1.733,1.405-3.138,3.138-3.138h145.157c1.733,0,3.138,1.405,3.138,3.138    v86.179c0,1.733-1.405,3.138-3.138,3.138H88.022C86.289,448.211,84.884,446.806,84.884,445.073z"/><path style="fill:#386E93;" d="M448.899,153.647v61.422c0,10.438-8.461,18.899-18.899,18.899H146.512    c-10.438,0-18.899-8.461-18.899-18.899v-61.422c0-10.438,8.461-18.899,18.899-18.899h283.488    C440.437,134.748,448.899,143.209,448.899,153.647z"/><path style="fill:#FF5859;" d="M361.439,184.341c0,6.715-5.427,12.176-12.142,12.176s-12.142-5.46-12.142-12.176    c0-6.682,5.427-12.142,12.142-12.142S361.439,177.659,361.439,184.341z"/><path style="fill:#EDEDED;" d="M323.696,184.341c0,6.715-5.427,12.176-12.142,12.176s-12.142-5.46-12.142-12.176    c0-6.682,5.427-12.142,12.142-12.142S323.696,177.659,323.696,184.341z"/><path style="fill:#386E93;" d="M448.899,32.702v61.422c0,10.438-8.461,18.899-18.899,18.899H146.512    c-10.438,0-18.899-8.461-18.899-18.899V32.702c0-10.438,8.461-18.899,18.899-18.899h283.488    C440.437,13.803,448.899,22.265,448.899,32.702z"/><path style="fill:#EDEDED;" d="M420.397,63.389c0,10.036-8.11,18.196-18.146,18.196s-18.146-8.16-18.146-18.196    c0-9.986,8.11-18.146,18.146-18.146S420.397,53.402,420.397,63.389z"/><path style="fill:#EDEDED;" d="M420.397,184.333c0,10.036-8.11,18.196-18.146,18.196s-18.146-8.16-18.146-18.196    c0-9.986,8.11-18.146,18.146-18.146S420.397,174.347,420.397,184.333z"/><path style="fill:#FF5859;" d="M361.439,63.397c0,6.715-5.427,12.176-12.142,12.176s-12.142-5.46-12.142-12.176    c0-6.682,5.427-12.142,12.142-12.142S361.439,56.715,361.439,63.397z"/><path style="fill:#EDEDED;" d="M323.696,63.397c0,6.715-5.427,12.176-12.142,12.176s-12.142-5.46-12.142-12.176    c0-6.682,5.427-12.142,12.142-12.142S323.696,56.715,323.696,63.397z"/><rect x="150.94" y="113.048" style="fill:#244C6B;" width="274.631" height="21.687"/><path style="fill:#EDEDED;" d="M475.089,347.214v136.931c0,7.76-6.291,14.051-14.051,14.051h-90.255    c-7.76,0-14.051-6.291-14.051-14.051V347.214c0-7.76,6.291-14.051,14.051-14.051h90.255    C468.798,333.163,475.089,339.454,475.089,347.214z"/><path style="fill:#386E93;" d="M356.732,463.399v20.746c0,7.76,6.291,14.051,14.051,14.051h90.255    c7.76,0,14.051-6.291,14.051-14.051v-20.746H356.732z"/><path style="fill:#332E8E;" d="M274.217,289.549H177.94c-11.052,0-20.046,8.993-20.046,20.046v18.658H67.1    c-7.641,0-13.856,6.215-13.856,13.856v123.779h-7.168c-2.711,0-4.911,2.2-4.911,4.911c0,17.808,14.489,32.294,32.297,32.294    h174.28c17.808,0,32.294-14.486,32.294-32.294c0-2.711-2.2-4.911-4.911-4.911h-7.168V342.109c0-7.641-6.215-13.856-13.856-13.856    h-86.385v-18.658c0-5.636,4.588-10.224,10.224-10.224h96.277c6.045,0,11.461-2.702,15.14-6.948    c3.679,4.247,9.096,6.948,15.143,6.948h96.274c5.64,0,10.228,4.588,10.228,10.224v18.658h-40.219    c-10.454,0-18.962,8.507-18.962,18.962c0,28.195,0,105.961,0,136.932c0,10.454,8.507,18.962,18.962,18.962h90.257    c10.454,0,18.962-8.507,18.962-18.962c0-31.224,0-108.896,0-136.932c0-10.454-8.507-18.962-18.962-18.962h-40.216v-18.658    c0-11.052-8.993-20.046-20.049-20.046H304.5c-5.64,0-10.228-4.588-10.228-10.228v-40.443h135.726    c13.13,0,23.812-10.681,23.812-23.809v-61.423c0-12.966-10.423-23.525-23.329-23.786v-11.95    c12.906-0.261,23.329-10.82,23.329-23.786V32.702c0-13.129-10.681-23.81-23.812-23.81H146.512    c-13.127,0-23.809,10.681-23.809,23.81v61.423c0,12.966,10.423,23.525,23.326,23.786v11.95    c-12.903,0.261-23.326,10.82-23.326,23.786v61.423c0,13.127,10.681,23.809,23.809,23.809h137.929v40.443    C284.441,284.961,279.853,289.549,274.217,289.549z M247.742,493.271H73.462c-10.707,0-19.688-7.526-21.935-17.562h6.596    c0.011,0,0.021,0.003,0.032,0.003h204.892c0.011,0,0.021-0.003,0.032-0.003h6.596    C267.426,485.745,258.446,493.271,247.742,493.271z M258.136,342.109v123.779H63.065V342.109c0-2.225,1.81-4.035,4.035-4.035    h187.001C256.326,338.074,258.136,339.884,258.136,342.109z M470.18,484.146c0,5.039-4.102,9.14-9.141,9.14h-90.257    c-5.039,0-9.141-4.102-9.141-9.14v-15.835H470.18V484.146z M470.18,347.215V458.49H361.641V347.215c0-5.039,4.102-9.14,9.141-9.14    h90.257C466.078,338.074,470.18,342.176,470.18,347.215z M155.851,117.959H420.66v11.866H155.851V117.959z M132.525,94.125V32.702    c0-7.713,6.276-13.989,13.987-13.989h283.486c7.715,0,13.99,6.276,13.99,13.989v61.423c0,7.713-6.276,13.989-13.99,13.989H146.512    C138.801,108.114,132.525,101.838,132.525,94.125z M132.525,215.069v-61.423c0-7.713,6.276-13.989,13.987-13.989h283.486    c7.715,0,13.99,6.276,13.99,13.989v61.423c0,7.711-6.276,13.987-13.99,13.987H146.512    C138.801,229.056,132.525,222.781,132.525,215.069z"/><path style="fill:#332E8E;" d="M79.974,358.894v86.178c0,4.438,3.61,8.05,8.047,8.05h145.158c4.438,0,8.05-3.613,8.05-8.05    v-86.178c0-4.438-3.613-8.05-8.05-8.05H88.021C83.584,350.843,79.974,354.456,79.974,358.894z M89.796,360.665h141.612V443.3    H89.796V360.665z"/><path style="fill:#332E8E;" d="M349.297,167.289c-9.403,0-17.053,7.651-17.053,17.053c0,9.422,7.651,17.085,17.053,17.085    c9.403,0,17.053-7.663,17.053-17.085C366.351,174.939,358.7,167.289,349.297,167.289z M349.297,191.606    c-3.987,0-7.232-3.258-7.232-7.264c0-3.988,3.245-7.232,7.232-7.232c3.987,0,7.232,3.243,7.232,7.232    C356.529,188.348,353.284,191.606,349.297,191.606z"/><path style="fill:#332E8E;" d="M311.553,167.289c-9.403,0-17.053,7.651-17.053,17.053c0,9.422,7.651,17.085,17.053,17.085    s17.053-7.663,17.053-17.085C328.606,174.939,320.955,167.289,311.553,167.289z M311.553,191.606    c-3.987,0-7.232-3.258-7.232-7.264c0-3.988,3.245-7.232,7.232-7.232c3.987,0,7.232,3.243,7.232,7.232    C318.784,188.348,315.539,191.606,311.553,191.606z"/><path style="fill:#332E8E;" d="M402.251,86.495c12.715,0,23.057-10.365,23.057-23.105c0-12.713-10.343-23.057-23.057-23.057    s-23.057,10.344-23.057,23.057C379.194,76.13,389.536,86.495,402.251,86.495z M402.251,50.153c7.299,0,13.236,5.937,13.236,13.236    c0,7.325-5.937,13.284-13.236,13.284s-13.236-5.959-13.236-13.284C389.015,56.09,394.952,50.153,402.251,50.153z"/><path style="fill:#332E8E;" d="M402.251,161.276c-12.715,0-23.057,10.344-23.057,23.057c0,12.742,10.343,23.107,23.057,23.107    s23.057-10.365,23.057-23.107C425.308,171.621,414.966,161.276,402.251,161.276z M402.251,197.619    c-7.299,0-13.236-5.959-13.236-13.286c0-7.299,5.937-13.236,13.236-13.236s13.236,5.937,13.236,13.236    C415.487,191.66,409.55,197.619,402.251,197.619z"/><path style="fill:#332E8E;" d="M349.297,80.483c9.403,0,17.053-7.665,17.053-17.085c0-9.403-7.651-17.053-17.053-17.053    c-9.403,0-17.053,7.651-17.053,17.053C332.244,72.818,339.895,80.483,349.297,80.483z M349.297,56.166    c3.987,0,7.232,3.243,7.232,7.232c0,4.006-3.245,7.264-7.232,7.264c-3.987,0-7.232-3.258-7.232-7.264    C342.066,59.409,345.311,56.166,349.297,56.166z"/><path style="fill:#332E8E;" d="M311.553,80.483c9.403,0,17.053-7.665,17.053-17.085c0-9.403-7.651-17.053-17.053-17.053    s-17.053,7.651-17.053,17.053C294.499,72.818,302.15,80.483,311.553,80.483z M311.553,56.166c3.987,0,7.232,3.243,7.232,7.232    c0,4.006-3.245,7.264-7.232,7.264c-3.987,0-7.232-3.258-7.232-7.264C304.321,59.409,307.566,56.166,311.553,56.166z"/><path style="fill:#332E8E;" d="M415.922,389.164c-12.382,0-23.997,4.812-32.703,13.546c-1.915,1.918-1.909,5.029,0.013,6.944    c1.918,1.915,5.032,1.909,6.944-0.013c6.848-6.871,15.992-10.656,25.746-10.656c9.77,0,18.927,3.785,25.775,10.656    c0.959,0.962,2.219,1.445,3.478,1.445c1.253,0,2.51-0.476,3.466-1.432c1.921-1.915,1.928-5.026,0.013-6.944    C439.948,393.975,428.323,389.164,415.922,389.164z"/><path style="fill:#332E8E;" d="M394.383,413.877c-1.918,1.918-1.925,5.026-0.01,6.947c1.918,1.921,5.023,1.925,6.947,0.01    c8.05-8.031,21.155-8.031,29.205,0c0.959,0.956,2.216,1.432,3.469,1.432c1.26,0,2.519-0.483,3.478-1.442    c1.915-1.921,1.909-5.032-0.01-6.947C425.583,402.035,406.257,402.035,394.383,413.877z"/><path style="fill:#332E8E;" d="M371.994,398.467c1.918,1.918,5.026,1.918,6.944,0c9.863-9.86,22.997-15.292,36.984-15.292    s27.121,5.432,36.984,15.292c0.959,0.959,2.216,1.439,3.472,1.439c1.256,0,2.513-0.48,3.472-1.439    c1.918-1.918,1.918-5.026,0-6.944c-11.717-11.717-27.316-18.169-43.928-18.169s-32.211,6.452-43.928,18.169    C370.075,393.441,370.075,396.549,371.994,398.467z"/><path style="fill:#332E8E;" d="M406.874,427.391c-1.918,1.918-1.918,5.026,0,6.944c1.918,1.918,5.026,1.918,6.944,0    c0.56-0.56,1.308-0.87,2.104-0.87h0.003c0.796,0,1.541,0.31,2.104,0.87c0.959,0.959,2.216,1.439,3.472,1.439    c1.256,0,2.513-0.48,3.472-1.439c1.918-1.918,1.918-5.026,0-6.944C419.988,422.401,411.865,422.394,406.874,427.391z"/><path style="fill:#332E8E;" d="M160.602,386.584c-12.386,0-24.001,4.812-32.703,13.546c-1.915,1.921-1.909,5.029,0.013,6.944    c1.925,1.915,5.032,1.909,6.944-0.013c6.848-6.871,15.989-10.656,25.746-10.656c9.774,0,18.924,3.785,25.772,10.656    c0.959,0.962,2.219,1.445,3.478,1.445c1.253,0,2.507-0.476,3.466-1.432c1.921-1.915,1.928-5.023,0.013-6.944    C184.628,391.395,173.003,386.584,160.602,386.584z"/><path style="fill:#332E8E;" d="M139.06,411.294c-1.918,1.915-1.925,5.026-0.01,6.947c0.959,0.959,2.219,1.442,3.478,1.442    c1.253,0,2.51-0.476,3.469-1.432c8.047-8.031,21.152-8.031,29.205,0c1.921,1.915,5.032,1.912,6.947-0.01    c1.915-1.921,1.909-5.029-0.01-6.947C170.26,399.452,150.94,399.452,139.06,411.294z"/><path style="fill:#332E8E;" d="M160.602,370.774c-16.615,0-32.217,6.452-43.928,18.169c-1.918,1.918-1.918,5.029,0,6.944    c1.918,1.918,5.026,1.918,6.944,0c9.86-9.86,22.993-15.292,36.984-15.292c13.99,0,27.124,5.432,36.984,15.292    c0.959,0.959,2.216,1.439,3.472,1.439c1.256,0,2.513-0.48,3.472-1.439c1.918-1.915,1.918-5.026,0-6.944    C192.819,377.226,177.217,370.774,160.602,370.774z"/><path style="fill:#332E8E;" d="M160.605,421.061c-0.006,0-0.013,0-0.016,0c-3.418,0.006-6.628,1.336-9.041,3.75    c-1.915,1.921-1.915,5.029,0.003,6.947c0.959,0.956,2.216,1.435,3.472,1.435s2.516-0.48,3.475-1.439    c0.559-0.563,1.304-0.87,2.1-0.873c0.003,0,0.003,0,0.006,0c0.793,0,1.541,0.31,2.1,0.87c1.918,1.918,5.026,1.918,6.944,0    c1.918-1.918,1.918-5.026,0-6.944C167.233,422.391,164.023,421.061,160.605,421.061z"/><path style="fill:#332E8E;" d="M157.98,87.01c2.711,0,4.911-2.198,4.911-4.911V44.728c0-2.713-2.2-4.911-4.911-4.911    s-4.911,2.198-4.911,4.911v37.371C153.069,84.812,155.269,87.01,157.98,87.01z"/><path style="fill:#332E8E;" d="M189.769,87.01c2.711,0,4.911-2.198,4.911-4.911V44.728c0-2.713-2.2-4.911-4.911-4.911    s-4.911,2.198-4.911,4.911v37.371C184.858,84.812,187.058,87.01,189.769,87.01z"/><path style="fill:#332E8E;" d="M221.558,87.01c2.711,0,4.911-2.198,4.911-4.911V44.728c0-2.713-2.2-4.911-4.911-4.911    s-4.911,2.198-4.911,4.911v37.371C216.647,84.812,218.846,87.01,221.558,87.01z"/><path style="fill:#332E8E;" d="M253.346,87.01c2.711,0,4.911-2.198,4.911-4.911V44.728c0-2.713-2.2-4.911-4.911-4.911    s-4.911,2.198-4.911,4.911v37.371C248.436,84.812,250.635,87.01,253.346,87.01z"/><path style="fill:#332E8E;" d="M157.98,160.762c-2.711,0-4.911,2.198-4.911,4.911v37.372c0,2.711,2.2,4.911,4.911,4.911    s4.911-2.2,4.911-4.911v-37.372C162.891,162.96,160.691,160.762,157.98,160.762z"/><path style="fill:#332E8E;" d="M189.769,160.762c-2.711,0-4.911,2.198-4.911,4.911v37.372c0,2.711,2.2,4.911,4.911,4.911    s4.911-2.2,4.911-4.911v-37.372C194.68,162.96,192.48,160.762,189.769,160.762z"/><path style="fill:#332E8E;" d="M221.558,160.762c-2.711,0-4.911,2.198-4.911,4.911v37.372c0,2.711,2.2,4.911,4.911,4.911    s4.911-2.2,4.911-4.911v-37.372C226.468,162.96,224.269,160.762,221.558,160.762z"/><path style="fill:#332E8E;" d="M253.346,160.762c-2.711,0-4.911,2.198-4.911,4.911v37.372c0,2.711,2.2,4.911,4.911,4.911    s4.911-2.2,4.911-4.911v-37.372C258.257,162.96,256.057,160.762,253.346,160.762z"/><path style="fill:#332E8E;" d="M413.473,485.71h4.876c2.711,0,4.911-2.2,4.911-4.911c0-2.711-2.2-4.911-4.911-4.911h-4.876    c-2.711,0-4.911,2.2-4.911,4.911C408.562,483.51,410.762,485.71,413.473,485.71z"/></g></g><g id="Layer_1"/></svg>